#format: frame checksums
#version: 2
#hash: MD5
#tb 0: 1/25
#media_type 0: video
#codec_id 0: h264
#dimensions 0: 352x288
#sar 0: 0/1
#stream#, dts,        pts, duration,     size, hash
0,         -1,          0,        1,     3915, 32456964d33c94c139b49cbec37051f9
0,          0,          1,        1,     4544, 2cc64d2271d2cff658adcc64cdcb6ddb
0,          1,          2,        1,     4176, 08f9985c2afbe8f8523b8062badffeab
0,          2,          3,        1,     4586, 13d58d8ab708ca633946b05630dd9065
0,          3,          4,        1,     4261, a18eebe6df17310d5260f4c14bb41a0d
0,          4,          5,        1,     4670, 271c13b3f5c4953ebac3c8d0bf9b1181
0,          5,          6,        1,     3891, 2e2d98b51802c40d03f0a5f6a4570023
0,          6,          7,        1,     4276, 5ac40e4e290b2d1297e75beab57f1d08
0,          7,          8,        1,     3952, 4ab54df7cf7ea64752393b7a5f8119e9
0,          8,          9,        1,     4363, f0bec0a9692564cef8474d67c6dbc425
0,          9,         10,        1,     4013, 0abdd45b719f3787ad1c537c73f4cb00
0,         10,         11,        1,     4514, cfdaa28cd2228ba6d2c43451ec9d166f
0,         11,         12,        1,     3901, cc6190c039a7bab8ac02eecef4ea26ce
0,         12,         13,        1,     4171, 698fab4550dc2a2db3bee0ded9301f75
0,         13,         14,        1,     4228, b2982f15a6d1b35bf9c2140bd55d19c9
0,         14,         15,        1,     4239, 01ca37beb00d4f97034a8b8b8fdfe28e
0,         15,         16,        1,     4255, 4e738cb788ec7686acf82f8cb2d216a6
0,         16,         17,        1,     4277, cc2d71e30108d555cca369bd63f941b0
0,         17,         18,        1,     4336, bb2770e905d89d82ee1d3b40ebeafe47
0,         18,         19,        1,     3689, d9d4c0241c3353d435c3a3a313754efb
0,         19,         20,        1,     4163, 3d6880cbb78598a0a912ec05a016efb5
0,         20,         21,        1,     3828, 403dc11d26b2367db0c05ba09dcaa258
0,         21,         22,        1,     4216, b1bcb4619826806cd82a0f5234b20fa8
0,         22,         23,        1,     3800, fe7605126e15891869765ba4939aed5c
0,         23,         24,        1,     4314, 104e5edb1549ed74b39e0c13765ce911
0,         24,         25,        1,     3866, 70919b6abd98fbd4a7e791e0dfd250c6
0,         25,         26,        1,     3865, 1adc738f5bd68cab4f40ff53ba5e5c0a
0,         26,         27,        1,     3929, 73580b1917939897a6ddf72e7f22849a
0,         27,         28,        1,     3984, 1572211c959097fcd074204f028dca23
0,         28,         29,        1,     3987, 5e7ebf4c49656cf1b6d9b4f4614438f3
0,         29,         30,        1,     4033, 9d0b24c43b01a4646a7cbf38b98f8546
0,         30,         31,        1,     4096, d7ca6d183946c39dbf63d9e035b715c1
0,         31,         32,        1,     3548, 694345b6c0ffe686e607ac2f255adc49
0,         32,         33,        1,     4575, 581668640ef24f33967a51e68d48ace0
0,         33,         34,        1,     3298, a06504e51ae083185a6f23b1673afd0b
0,         34,         35,        1,     4145, 4e8b9a2a34dc4713bfbc5e4d5bdf3844
0,         35,         36,        1,     3369, 5779aa379fa50717fcbfd5b3d92d5d0a
0,         36,         37,        1,     4179, 0800ad5d3c164f2b18fdf0e238de28f8
0,         37,         38,        1,     3402, 4b5847a45a68d6b30a1d66f10ebead2d
0,         38,         39,        1,     4270, 2f5781d0f721270fa75ce290d3e4a6fc
0,         39,         40,        1,     3445, 7661ca788159fc10591a919e73573209
0,         40,         41,        1,     3826, fbcbefc4fcbd9d0c51e5122332284e79
0,         41,         42,        1,     3808, 8a56f2ce2f2fa9bd59bd1fdf284ba1fa
0,         42,         43,        1,     3840, 033d5122e44e65f61f61e713940c6d6b
0,         43,         44,        1,     3825, 7ea7dd5c98cd4e95c3c324f6454c39ee
0,         44,         45,        1,     3857, e833875566a6862fff4a97ee5be582da
0,         45,         46,        1,     3818, 279fd47914f2916574435fd4d67739a4
0,         46,         47,        1,     3812, 411a0c0da7cfb1418e22f529b4230d7b
0,         47,         48,        1,     3874, f67501eca8365d465363733842e260c9
0,         48,         49,        1,     3522, cdbe9f3f03c15d860acf00deb1a20a96
